<?xml version="1.0" encoding="utf-8"?>
<!-- Generator: Adobe Illustrator 12.0.1, SVG Export Plug-In . SVG Version: 6.00 Build 51448)  -->
<!DOCTYPE svg PUBLIC ",//W3C//DTD SVG 1.1//EN" "http://www.w3.org/Graphics/SVG/1.1/DTD/svg11.dtd" [<!ENTITY ns_svg "http://www.w3.org/2000/svg"> <!ENTITY ns_xlink "http://www.w3.org/1999/xlink"> ]>
<svg  version="1.1" id="Bundesrepublik_Deutschland" xmlns="&ns_svg;" xmlns:xlink="&ns_xlink;"  xmlns:sodipodi="http://sodipodi.sourceforge.net/DTD/sodipodi-0.dtd" width="591.504" height="800.504"
 
viewBox="0 0 591.504 800.504" overflow="visible" enable-background="new 0 0 591.504 800.504" xml:space="preserve">
<g>
<path id="Bremen" fill="#B1D1A3" stroke="#284566" stroke-width="0.5" d="
M178.358,158.232
l0.574,-0.37
l0.181,-0.456
l0.074,-0.263
l-0.043,-0.783
l-0.063,-0.338
l-0.125,-0.307
l-2.146,-3.774
l-0.862,-1.343
l0.969,-1.184
l0.925,-0.074
l5.393,0.273
l1.683,0.266
l0.063,0.095
l-1.073,4.969
l0.899,3.882
l-0.096,0.519
l-2.559,2.706
l-0.18,0.011
l-1.825,-0.201
l-0.32,-0.199
l-0.171,-0.232
l0.369,-0.528
l0.063,-0.19
l0.000,-0.19
l-1.369,-1.817
L178.358,158.232
z 
M204.24,198.642
l-1.378,-1.671
l-0.684,-0.486
l-0.316,-0.011
l-1.146,0.729
l-4.706,-0.139
l-3.77,-1.913
l-4.229,-2.071
l-6.478,-0.771
l-7.514,-4.05
l-0.274,-0.867
l-0.011,-0.677
l-0.021,0.729
l0.223,1.313
l0.396,0.855
l0.315,0.562
l0.735,1.078
l1.55,1.248
l2.378,1.141
l0.798,0.34
l0.911,0.126
l0.768,0.201
l0.358,0.307
l0.253,0.508
l1.576,4.196
l0.147,1.322
l0.915,0.624
l1.961,2.114
l0.492,0.677
l0.063,0.635
l0.063,2.611
l0.486,0.507
l0.544,0.466
l0.307,0.074
l1.054,-0.36
l0.37,-0.147
l1.348,0.011
l5.345,1.852
l3.109,1.217
l3.251,-2.781
l0.053,-1.967
l-0.381,-4.77
l-0.787,-1.226
l0.084,-0.128
l0.139,-0.073
l0.968,-0.358
l1.01,-0.382
L204.24,198.642
z
"/>
</g>
</svg>
